<mxfile host="drawio-plugin" modified="2024-06-20T09:54:54.632Z" agent="5.0 (Windows NT 10.0; Win64; x64) AppleWebKit/537.36 (KHTML, like Gecko) Chrome/111.0.0.0 Safari/537.36" etag="EA1mFScMasr302xzVAKt" version="20.5.3" type="embed"><diagram name="Страница — 1" id="W3aqE9auqjd-TNdpTrAR"><mxGraphModel dx="519" dy="357" grid="1" gridSize="10" guides="1" tooltips="1" connect="1" arrows="1" fold="1" page="1" pageScale="1" pageWidth="827" pageHeight="1169" math="0" shadow="0"><root><mxCell id="0"/><mxCell id="1" parent="0"/><mxCell id="QS8BnpBDw42ccTHQEy5O-3" value="MUX" style="verticalLabelPosition=middle;verticalAlign=middle;html=1;shape=trapezoid;perimeter=trapezoidPerimeter;whiteSpace=wrap;size=0.23;arcSize=10;flipV=1;labelPosition=center;align=center;rotation=90;" parent="1" vertex="1"><mxGeometry x="420" y="360" width="100" height="30" as="geometry"/></mxCell><mxCell id="QS8BnpBDw42ccTHQEy5O-4" value="" style="endArrow=none;html=1;rounded=0;strokeWidth=1;" parent="1" edge="1"><mxGeometry width="50" height="50" relative="1" as="geometry"><mxPoint x="170" y="450" as="sourcePoint"/><mxPoint x="210" y="450" as="targetPoint"/></mxGeometry></mxCell><mxCell id="QS8BnpBDw42ccTHQEy5O-5" value="" style="endArrow=none;html=1;rounded=0;strokeWidth=1;" parent="1" edge="1"><mxGeometry width="50" height="50" relative="1" as="geometry"><mxPoint x="250" y="450" as="sourcePoint"/><mxPoint x="290" y="450" as="targetPoint"/></mxGeometry></mxCell><mxCell id="QS8BnpBDw42ccTHQEy5O-6" value="" style="endArrow=none;html=1;rounded=0;" parent="1" edge="1"><mxGeometry width="50" height="50" relative="1" as="geometry"><mxPoint x="210" y="500" as="sourcePoint"/><mxPoint x="250" y="500" as="targetPoint"/></mxGeometry></mxCell><mxCell id="QS8BnpBDw42ccTHQEy5O-7" value="" style="endArrow=none;html=1;rounded=0;" parent="1" edge="1"><mxGeometry width="50" height="50" relative="1" as="geometry"><mxPoint x="170" y="450" as="sourcePoint"/><mxPoint x="210" y="500" as="targetPoint"/></mxGeometry></mxCell><mxCell id="QS8BnpBDw42ccTHQEy5O-8" value="" style="endArrow=none;html=1;rounded=0;" parent="1" edge="1"><mxGeometry width="50" height="50" relative="1" as="geometry"><mxPoint x="250" y="500" as="sourcePoint"/><mxPoint x="290" y="450" as="targetPoint"/></mxGeometry></mxCell><mxCell id="QS8BnpBDw42ccTHQEy5O-9" value="" style="endArrow=none;html=1;rounded=0;" parent="1" edge="1"><mxGeometry width="50" height="50" relative="1" as="geometry"><mxPoint x="210" y="450" as="sourcePoint"/><mxPoint x="230" y="470" as="targetPoint"/></mxGeometry></mxCell><mxCell id="QS8BnpBDw42ccTHQEy5O-10" value="" style="endArrow=none;html=1;rounded=0;" parent="1" edge="1"><mxGeometry width="50" height="50" relative="1" as="geometry"><mxPoint x="250" y="450" as="sourcePoint"/><mxPoint x="230" y="470" as="targetPoint"/></mxGeometry></mxCell><mxCell id="QS8BnpBDw42ccTHQEy5O-12" value="ALU" style="text;html=1;align=center;verticalAlign=middle;whiteSpace=wrap;rounded=0;" parent="1" vertex="1"><mxGeometry x="200" y="470" width="60" height="30" as="geometry"/></mxCell><mxCell id="QS8BnpBDw42ccTHQEy5O-14" value="Stack" style="rounded=0;whiteSpace=wrap;html=1;" parent="1" vertex="1"><mxGeometry x="300" y="10" width="80" height="130" as="geometry"/></mxCell><mxCell id="QS8BnpBDw42ccTHQEy5O-15" value="TOS" style="rounded=0;whiteSpace=wrap;html=1;" parent="1" vertex="1"><mxGeometry x="300" y="280" width="80" height="20" as="geometry"/></mxCell><mxCell id="QS8BnpBDw42ccTHQEy5O-20" value="TOS-1" style="rounded=0;whiteSpace=wrap;html=1;" parent="1" vertex="1"><mxGeometry x="299" y="230" width="80" height="20" as="geometry"/></mxCell><mxCell id="QS8BnpBDw42ccTHQEy5O-24" value="" style="endArrow=classic;html=1;rounded=0;exitX=0;exitY=0.5;exitDx=0;exitDy=0;entryX=0.25;entryY=0;entryDx=0;entryDy=0;strokeWidth=2;" parent="1" source="QS8BnpBDw42ccTHQEy5O-15" target="QS8BnpBDw42ccTHQEy5O-46" edge="1"><mxGeometry width="50" height="50" relative="1" as="geometry"><mxPoint x="289" y="400" as="sourcePoint"/><mxPoint x="270" y="380" as="targetPoint"/><Array as="points"><mxPoint x="265" y="290"/></Array></mxGeometry></mxCell><mxCell id="QS8BnpBDw42ccTHQEy5O-25" value="" style="endArrow=classic;html=1;rounded=0;exitX=0.5;exitY=1;exitDx=0;exitDy=0;strokeWidth=2;" parent="1" source="QS8BnpBDw42ccTHQEy5O-38" edge="1"><mxGeometry width="50" height="50" relative="1" as="geometry"><mxPoint x="199" y="380" as="sourcePoint"/><mxPoint x="190" y="450" as="targetPoint"/><Array as="points"><mxPoint x="170" y="430"/><mxPoint x="190" y="430"/></Array></mxGeometry></mxCell><mxCell id="QS8BnpBDw42ccTHQEy5O-26" value="" style="endArrow=classic;html=1;rounded=0;exitX=0.5;exitY=1;exitDx=0;exitDy=0;strokeWidth=2;" parent="1" source="QS8BnpBDw42ccTHQEy5O-12" edge="1"><mxGeometry width="50" height="50" relative="1" as="geometry"><mxPoint x="359" y="330" as="sourcePoint"/><mxPoint x="490" y="420" as="targetPoint"/><Array as="points"><mxPoint x="230" y="520"/><mxPoint x="520" y="520"/><mxPoint x="520" y="420"/></Array></mxGeometry></mxCell><mxCell id="QS8BnpBDw42ccTHQEy5O-27" value="" style="endArrow=classic;html=1;rounded=0;exitX=0.5;exitY=1;exitDx=0;exitDy=0;entryX=0.5;entryY=1;entryDx=0;entryDy=0;strokeWidth=2;" parent="1" source="QS8BnpBDw42ccTHQEy5O-3" target="QS8BnpBDw42ccTHQEy5O-15" edge="1"><mxGeometry width="50" height="50" relative="1" as="geometry"><mxPoint x="369" y="340" as="sourcePoint"/><mxPoint x="409" y="450" as="targetPoint"/><Array as="points"><mxPoint x="439" y="375"/><mxPoint x="439" y="340"/><mxPoint x="340" y="340"/></Array></mxGeometry></mxCell><mxCell id="QS8BnpBDw42ccTHQEy5O-28" value="" style="endArrow=classic;html=1;rounded=0;exitX=0;exitY=0.5;exitDx=0;exitDy=0;strokeWidth=2;" parent="1" source="QS8BnpBDw42ccTHQEy5O-30" edge="1"><mxGeometry width="50" height="50" relative="1" as="geometry"><mxPoint x="519" y="275" as="sourcePoint"/><mxPoint x="490" y="360" as="targetPoint"/><Array as="points"><mxPoint x="540" y="275"/><mxPoint x="540" y="360"/></Array></mxGeometry></mxCell><mxCell id="QS8BnpBDw42ccTHQEy5O-30" value="Data&lt;div&gt;memory&lt;/div&gt;" style="rounded=0;whiteSpace=wrap;html=1;" parent="1" vertex="1"><mxGeometry x="559" y="160" width="120" height="230" as="geometry"/></mxCell><mxCell id="QS8BnpBDw42ccTHQEy5O-31" value="" style="endArrow=classic;html=1;rounded=0;exitX=1;exitY=0.5;exitDx=0;exitDy=0;entryX=0.25;entryY=0;entryDx=0;entryDy=0;strokeWidth=2;" parent="1" source="QS8BnpBDw42ccTHQEy5O-15" target="QS8BnpBDw42ccTHQEy5O-30" edge="1"><mxGeometry width="50" height="50" relative="1" as="geometry"><mxPoint x="289" y="330" as="sourcePoint"/><mxPoint x="339" y="280" as="targetPoint"/><Array as="points"><mxPoint x="500" y="290"/><mxPoint x="500" y="140"/><mxPoint x="589" y="140"/></Array></mxGeometry></mxCell><mxCell id="QS8BnpBDw42ccTHQEy5O-36" value="address" style="edgeLabel;html=1;align=center;verticalAlign=middle;resizable=0;points=[];" parent="QS8BnpBDw42ccTHQEy5O-31" vertex="1" connectable="0"><mxGeometry x="0.4074" relative="1" as="geometry"><mxPoint x="40" y="-7" as="offset"/></mxGeometry></mxCell><mxCell id="QS8BnpBDw42ccTHQEy5O-32" value="" style="endArrow=classic;html=1;rounded=0;exitX=1;exitY=0.5;exitDx=0;exitDy=0;entryX=0.5;entryY=0;entryDx=0;entryDy=0;strokeWidth=2;" parent="1" source="QS8BnpBDw42ccTHQEy5O-20" target="QS8BnpBDw42ccTHQEy5O-30" edge="1"><mxGeometry width="50" height="50" relative="1" as="geometry"><mxPoint x="389" y="360" as="sourcePoint"/><mxPoint x="429" y="470" as="targetPoint"/><Array as="points"><mxPoint x="470" y="240"/><mxPoint x="470" y="110"/><mxPoint x="619" y="110"/></Array></mxGeometry></mxCell><mxCell id="QS8BnpBDw42ccTHQEy5O-37" value="data" style="edgeLabel;html=1;align=center;verticalAlign=middle;resizable=0;points=[];" parent="QS8BnpBDw42ccTHQEy5O-32" vertex="1" connectable="0"><mxGeometry x="0.282" y="-2" relative="1" as="geometry"><mxPoint x="25" as="offset"/></mxGeometry></mxCell><mxCell id="QS8BnpBDw42ccTHQEy5O-38" value="MUX" style="verticalLabelPosition=middle;verticalAlign=middle;html=1;shape=trapezoid;perimeter=trapezoidPerimeter;whiteSpace=wrap;size=0.23;arcSize=10;flipV=1;labelPosition=center;align=center;rotation=0;" parent="1" vertex="1"><mxGeometry x="120" y="380" width="100" height="30" as="geometry"/></mxCell><mxCell id="QS8BnpBDw42ccTHQEy5O-40" value="" style="endArrow=classic;html=1;rounded=0;exitX=0;exitY=0.5;exitDx=0;exitDy=0;entryX=0.203;entryY=0.998;entryDx=0;entryDy=0;entryPerimeter=0;strokeWidth=2;" parent="1" source="QS8BnpBDw42ccTHQEy5O-20" target="QS8BnpBDw42ccTHQEy5O-38" edge="1"><mxGeometry width="50" height="50" relative="1" as="geometry"><mxPoint x="209" y="370" as="sourcePoint"/><mxPoint x="309" y="430" as="targetPoint"/><Array as="points"><mxPoint x="140" y="240"/></Array></mxGeometry></mxCell><mxCell id="QS8BnpBDw42ccTHQEy5O-41" value="" style="endArrow=classic;html=1;rounded=0;entryX=0.8;entryY=0.998;entryDx=0;entryDy=0;exitX=0.5;exitY=1;exitDx=0;exitDy=0;entryPerimeter=0;" parent="1" source="QS8BnpBDw42ccTHQEy5O-42" target="QS8BnpBDw42ccTHQEy5O-38" edge="1"><mxGeometry width="50" height="50" relative="1" as="geometry"><mxPoint x="174" y="300" as="sourcePoint"/><mxPoint x="234" y="340" as="targetPoint"/><Array as="points"/></mxGeometry></mxCell><mxCell id="QS8BnpBDw42ccTHQEy5O-42" value="0" style="text;html=1;align=center;verticalAlign=middle;whiteSpace=wrap;rounded=0;" parent="1" vertex="1"><mxGeometry x="190" y="330" width="20" height="25" as="geometry"/></mxCell><mxCell id="QS8BnpBDw42ccTHQEy5O-44" value="" style="endArrow=classic;html=1;rounded=0;entryX=0.603;entryY=0.998;entryDx=0;entryDy=0;exitX=0.5;exitY=1;exitDx=0;exitDy=0;entryPerimeter=0;" parent="1" source="QS8BnpBDw42ccTHQEy5O-45" target="QS8BnpBDw42ccTHQEy5O-38" edge="1"><mxGeometry width="50" height="50" relative="1" as="geometry"><mxPoint x="184" y="305" as="sourcePoint"/><mxPoint x="184" y="340" as="targetPoint"/><Array as="points"/></mxGeometry></mxCell><mxCell id="QS8BnpBDw42ccTHQEy5O-45" value="1" style="text;html=1;align=center;verticalAlign=middle;whiteSpace=wrap;rounded=0;" parent="1" vertex="1"><mxGeometry x="170" y="330" width="20" height="25" as="geometry"/></mxCell><mxCell id="QS8BnpBDw42ccTHQEy5O-46" value="MUX" style="verticalLabelPosition=middle;verticalAlign=middle;html=1;shape=trapezoid;perimeter=trapezoidPerimeter;whiteSpace=wrap;size=0.23;arcSize=10;flipV=1;labelPosition=center;align=center;rotation=0;" parent="1" vertex="1"><mxGeometry x="240" y="380" width="100" height="30" as="geometry"/></mxCell><mxCell id="QS8BnpBDw42ccTHQEy5O-47" value="" style="endArrow=classic;html=1;rounded=0;entryX=0.75;entryY=0;entryDx=0;entryDy=0;exitX=0.5;exitY=1;exitDx=0;exitDy=0;" parent="1" source="QS8BnpBDw42ccTHQEy5O-48" target="QS8BnpBDw42ccTHQEy5O-46" edge="1"><mxGeometry width="50" height="50" relative="1" as="geometry"><mxPoint x="305" y="355" as="sourcePoint"/><mxPoint x="305" y="380" as="targetPoint"/><Array as="points"/></mxGeometry></mxCell><mxCell id="QS8BnpBDw42ccTHQEy5O-48" value="0" style="text;html=1;align=center;verticalAlign=middle;whiteSpace=wrap;rounded=0;" parent="1" vertex="1"><mxGeometry x="310" y="330" width="10" height="25" as="geometry"/></mxCell><mxCell id="QS8BnpBDw42ccTHQEy5O-49" value="" style="endArrow=classic;html=1;rounded=0;exitX=0.5;exitY=1;exitDx=0;exitDy=0;strokeWidth=2;" parent="1" source="QS8BnpBDw42ccTHQEy5O-46" edge="1"><mxGeometry width="50" height="50" relative="1" as="geometry"><mxPoint x="180" y="420" as="sourcePoint"/><mxPoint x="270" y="450" as="targetPoint"/><Array as="points"><mxPoint x="290" y="430"/><mxPoint x="270" y="430"/></Array></mxGeometry></mxCell><mxCell id="2" value="SP" style="rounded=0;whiteSpace=wrap;html=1;" parent="1" vertex="1"><mxGeometry x="150" y="135" width="80" height="20" as="geometry"/></mxCell><mxCell id="3" value="" style="endArrow=classic;html=1;rounded=0;exitX=0.5;exitY=1;exitDx=0;exitDy=0;entryX=0;entryY=0.5;entryDx=0;entryDy=0;strokeWidth=2;" parent="1" source="QS8BnpBDw42ccTHQEy5O-12" target="2" edge="1"><mxGeometry width="50" height="50" relative="1" as="geometry"><mxPoint x="360" y="380" as="sourcePoint"/><mxPoint x="410" y="330" as="targetPoint"/><Array as="points"><mxPoint x="230" y="520"/><mxPoint x="30" y="520"/><mxPoint x="30" y="145"/></Array></mxGeometry></mxCell><mxCell id="5" value="" style="endArrow=none;html=1;rounded=0;entryX=0.5;entryY=0;entryDx=0;entryDy=0;jumpStyle=arc;startArrow=classic;startFill=1;strokeWidth=2;endFill=0;exitX=1;exitY=0.75;exitDx=0;exitDy=0;" parent="1" source="QS8BnpBDw42ccTHQEy5O-14" target="QS8BnpBDw42ccTHQEy5O-15" edge="1"><mxGeometry width="50" height="50" relative="1" as="geometry"><mxPoint x="390" y="140" as="sourcePoint"/><mxPoint x="410" y="230" as="targetPoint"/><Array as="points"><mxPoint x="410" y="108"/><mxPoint x="410" y="270"/><mxPoint x="340" y="270"/></Array></mxGeometry></mxCell><mxCell id="8" value="" style="endArrow=classic;html=1;jumpStyle=arc;exitX=1;exitY=0.5;exitDx=0;exitDy=0;entryX=0;entryY=0.5;entryDx=0;entryDy=0;rounded=0;strokeWidth=2;" parent="1" source="2" target="QS8BnpBDw42ccTHQEy5O-14" edge="1"><mxGeometry width="50" height="50" relative="1" as="geometry"><mxPoint x="260" y="310" as="sourcePoint"/><mxPoint x="310" y="260" as="targetPoint"/><Array as="points"><mxPoint x="260" y="145"/><mxPoint x="260" y="75"/></Array></mxGeometry></mxCell><mxCell id="9" value="" style="endArrow=classic;html=1;rounded=0;jumpStyle=arc;exitX=0.5;exitY=1;exitDx=0;exitDy=0;entryX=0.5;entryY=0;entryDx=0;entryDy=0;strokeWidth=2;" parent="1" source="2" target="QS8BnpBDw42ccTHQEy5O-46" edge="1"><mxGeometry width="50" height="50" relative="1" as="geometry"><mxPoint x="250" y="340" as="sourcePoint"/><mxPoint x="300" y="290" as="targetPoint"/><Array as="points"><mxPoint x="190" y="200"/><mxPoint x="190" y="320"/><mxPoint x="290" y="320"/></Array></mxGeometry></mxCell><mxCell id="10" value="" style="endArrow=classic;html=1;rounded=0;entryX=0.397;entryY=0.998;entryDx=0;entryDy=0;entryPerimeter=0;" parent="1" source="11" target="QS8BnpBDw42ccTHQEy5O-38" edge="1"><mxGeometry width="50" height="50" relative="1" as="geometry"><mxPoint x="160" y="360" as="sourcePoint"/><mxPoint x="190.29999999999995" y="390.06000000000006" as="targetPoint"/><Array as="points"/></mxGeometry></mxCell><mxCell id="11" value="-1" style="text;html=1;align=center;verticalAlign=middle;whiteSpace=wrap;rounded=0;" parent="1" vertex="1"><mxGeometry x="150" y="330" width="20" height="25" as="geometry"/></mxCell><mxCell id="29" value="" style="endArrow=classic;html=1;rounded=0;strokeWidth=1;entryX=1;entryY=0.75;entryDx=0;entryDy=0;" parent="1" target="QS8BnpBDw42ccTHQEy5O-46" edge="1"><mxGeometry relative="1" as="geometry"><mxPoint x="380" y="400" as="sourcePoint"/><mxPoint x="331.30081300813004" y="414.390243902439" as="targetPoint"/></mxGeometry></mxCell><mxCell id="30" value="ALU_right_input" style="edgeLabel;resizable=0;html=1;align=center;verticalAlign=middle;" parent="29" connectable="0" vertex="1"><mxGeometry relative="1" as="geometry"><mxPoint x="23" y="-10" as="offset"/></mxGeometry></mxCell><mxCell id="33" value="" style="endArrow=classic;html=1;rounded=0;strokeWidth=1;entryX=0;entryY=0.75;entryDx=0;entryDy=0;" parent="1" target="QS8BnpBDw42ccTHQEy5O-38" edge="1"><mxGeometry relative="1" as="geometry"><mxPoint x="80" y="400" as="sourcePoint"/><mxPoint x="10" y="409.52" as="targetPoint"/></mxGeometry></mxCell><mxCell id="34" value="ALU_left_input" style="edgeLabel;resizable=0;html=1;align=center;verticalAlign=middle;" parent="33" connectable="0" vertex="1"><mxGeometry relative="1" as="geometry"><mxPoint x="-28" y="-10" as="offset"/></mxGeometry></mxCell><mxCell id="43" value="" style="endArrow=classic;html=1;rounded=0;strokeWidth=1;entryX=1;entryY=0.5;entryDx=0;entryDy=0;" parent="1" target="QS8BnpBDw42ccTHQEy5O-3" edge="1"><mxGeometry relative="1" as="geometry"><mxPoint x="430" y="450" as="sourcePoint"/><mxPoint x="500" y="360" as="targetPoint"/></mxGeometry></mxCell><mxCell id="44" value="latch_tos_type" style="edgeLabel;resizable=0;html=1;align=center;verticalAlign=middle;" parent="43" connectable="0" vertex="1"><mxGeometry relative="1" as="geometry"><mxPoint x="-36" y="28" as="offset"/></mxGeometry></mxCell><mxCell id="50" value="" style="endArrow=classic;html=1;rounded=0;strokeWidth=1;entryX=0.25;entryY=0;entryDx=0;entryDy=0;" parent="1" target="2" edge="1"><mxGeometry relative="1" as="geometry"><mxPoint x="110" y="120" as="sourcePoint"/><mxPoint x="390" y="260" as="targetPoint"/><Array as="points"><mxPoint x="170" y="120"/></Array></mxGeometry></mxCell><mxCell id="51" value="latch_sp" style="edgeLabel;resizable=0;html=1;align=center;verticalAlign=middle;" parent="50" connectable="0" vertex="1"><mxGeometry relative="1" as="geometry"><mxPoint x="-8" y="-10" as="offset"/></mxGeometry></mxCell><mxCell id="56" value="" style="endArrow=classic;html=1;rounded=0;strokeWidth=1;entryX=1;entryY=0.25;entryDx=0;entryDy=0;" parent="1" target="QS8BnpBDw42ccTHQEy5O-14" edge="1"><mxGeometry relative="1" as="geometry"><mxPoint x="450" y="43" as="sourcePoint"/><mxPoint x="400" y="90" as="targetPoint"/></mxGeometry></mxCell><mxCell id="57" value="write_from_tos" style="edgeLabel;resizable=0;html=1;align=center;verticalAlign=middle;" parent="56" connectable="0" vertex="1"><mxGeometry relative="1" as="geometry"><mxPoint x="5" y="-13" as="offset"/></mxGeometry></mxCell><mxCell id="60" value="" style="endArrow=classic;html=1;rounded=0;strokeWidth=1;entryX=0.998;entryY=0.3;entryDx=0;entryDy=0;entryPerimeter=0;" parent="1" edge="1"><mxGeometry relative="1" as="geometry"><mxPoint x="750.1600000000001" y="200" as="sourcePoint"/><mxPoint x="679" y="200" as="targetPoint"/></mxGeometry></mxCell><mxCell id="61" value="write_mem" style="edgeLabel;resizable=0;html=1;align=center;verticalAlign=middle;" parent="60" connectable="0" vertex="1"><mxGeometry relative="1" as="geometry"><mxPoint x="5" y="-13" as="offset"/></mxGeometry></mxCell><mxCell id="67" value="" style="endArrow=classic;html=1;rounded=0;exitX=0.5;exitY=1;exitDx=0;exitDy=0;strokeWidth=2;entryX=0.5;entryY=0;entryDx=0;entryDy=0;" parent="1" source="QS8BnpBDw42ccTHQEy5O-14" target="QS8BnpBDw42ccTHQEy5O-20" edge="1"><mxGeometry width="50" height="50" relative="1" as="geometry"><mxPoint x="510" y="360" as="sourcePoint"/><mxPoint x="314" y="180" as="targetPoint"/><Array as="points"/></mxGeometry></mxCell><mxCell id="71" value="" style="endArrow=classic;html=1;rounded=0;strokeWidth=2;" parent="1" edge="1"><mxGeometry relative="1" as="geometry"><mxPoint x="680" y="460" as="sourcePoint"/><mxPoint x="490" y="390" as="targetPoint"/><Array as="points"><mxPoint x="540" y="460"/><mxPoint x="540" y="390"/></Array></mxGeometry></mxCell><mxCell id="73" value="Literal from CU" style="edgeLabel;resizable=0;html=1;align=left;verticalAlign=bottom;" parent="71" connectable="0" vertex="1"><mxGeometry x="-1" relative="1" as="geometry"/></mxCell><mxCell id="76" value="" style="endArrow=classic;html=1;rounded=0;strokeWidth=1;" parent="1" edge="1"><mxGeometry relative="1" as="geometry"><mxPoint x="320" y="480" as="sourcePoint"/><mxPoint x="280" y="480" as="targetPoint"/><Array as="points"/></mxGeometry></mxCell><mxCell id="77" value="ALU_OP" style="edgeLabel;resizable=0;html=1;align=center;verticalAlign=middle;" parent="76" connectable="0" vertex="1"><mxGeometry relative="1" as="geometry"><mxPoint x="10" y="-10" as="offset"/></mxGeometry></mxCell><mxCell id="98" value="" style="endArrow=classic;html=1;rounded=0;strokeWidth=2;jumpStyle=arc;exitX=1;exitY=0.5;exitDx=0;exitDy=0;" parent="1" source="QS8BnpBDw42ccTHQEy5O-14" edge="1"><mxGeometry width="50" height="50" relative="1" as="geometry"><mxPoint x="380" y="120" as="sourcePoint"/><mxPoint x="490" y="330" as="targetPoint"/><Array as="points"><mxPoint x="440" y="75"/><mxPoint x="440" y="200"/><mxPoint x="520" y="200"/><mxPoint x="520" y="330"/></Array></mxGeometry></mxCell><mxCell id="99" value="" style="endArrow=classic;html=1;rounded=0;strokeWidth=1;entryX=0.25;entryY=0;entryDx=0;entryDy=0;" parent="1" target="QS8BnpBDw42ccTHQEy5O-20" edge="1"><mxGeometry relative="1" as="geometry"><mxPoint x="270" y="210" as="sourcePoint"/><mxPoint x="295.4971751412429" y="188.4745762711865" as="targetPoint"/><Array as="points"><mxPoint x="319" y="210"/></Array></mxGeometry></mxCell><mxCell id="100" value="latch_tos1" style="edgeLabel;resizable=0;html=1;align=center;verticalAlign=middle;" parent="99" connectable="0" vertex="1"><mxGeometry relative="1" as="geometry"><mxPoint x="-14" y="-10" as="offset"/></mxGeometry></mxCell></root></mxGraphModel></diagram></mxfile>